<mxfile cover="2412;/9j/4AAQSkZJRgABAQAAAQABAAD/4gHYSUNDX1BST0ZJTEUAAQEAAAHIAAAAAAQwAABtbnRyUkdCIFhZWiAH4AABAAEAAAAAAABhY3NwAAAAAAAAAAAAAAAAAAAAAAAAAAAAAAAAAAAAAQAA9tYAAQAAAADTLQAAAAAAAAAAAAAAAAAAAAAAAAAAAAAAAAAAAAAAAAAAAAAAAAAAAAAAAAAAAAAAAAAAAAlkZXNjAAAA8AAAACRyWFlaAAABFAAAABRnWFlaAAABKAAAABRiWFlaAAABPAAAABR3dHB0AAABUAAAABRyVFJDAAABZAAAAChnVFJDAAABZAAAAChiVFJDAAABZAAAAChjcHJ0AAABjAAAADxtbHVjAAAAAAAAAAEAAAAMZW5VUwAAAAgAAAAcAHMAUgBHAEJYWVogAAAAAAAAb6IAADj1AAADkFhZWiAAAAAAAABimQAAt4UAABjaWFlaIAAAAAAAACSgAAAPhAAAts9YWVogAAAAAAAA9tYAAQAAAADTLXBhcmEAAAAAAAQAAAACZmYAAPKnAAANWQAAE9AAAApbAAAAAAAAAABtbHVjAAAAAAAAAAEAAAAMZW5VUwAAACAAAAAcAEcAbwBvAGcAbABlACAASQBuAGMALgAgADIAMAAxADb/2wBDAAMCAgICAgMCAgIDAwMDBAYEBAQEBAgGBgUGCQgKCgkICQkKDA8MCgsOCwkJDRENDg8QEBEQCgwSExIQEw8QEBD/2wBDAQMDAwQDBAgEBAgQCwkLEBAQEBAQEBAQEBAQEBAQEBAQEBAQEBAQEBAQEBAQEBAQEBAQEBAQEBAQEBAQEBAQEBD/wAARCABBAFQDASIAAhEBAxEB/8QAHAABAQEBAAIDAAAAAAAAAAAAAAUGBAIDBwgJ/8QAORAAAAUDAQUEBwYHAAAAAAAAAAECAwQFBhEhEjE0dLQUFUGTEyJRVXGB0gcWIzJTYTM2Q1dilLP/xAAUAQEAAAAAAAAAAAAAAAAAAAAA/8QAFBEBAAAAAAAAAAAAAAAAAAAAAP/aAAwDAQACEQMRAD8A/TeZW+2RpDFObqDbiXFslIRDNxJKQs0qwWmdUmQzbDN9tRybcvKouuJSoicVbiCyo8YNRErXGuCLG/XOBrbd4B3npvUuCmAyFvP3JTXFKr1YqVXQbeySe5kx8Lz+bKTPw0wOO4K9Dq14WvbEq26qptyW7LVIkwD7GZJiSS9Gaz09JnCiTjcWfAbsR7iptSnOUuXSVxifps05OzINRIWRsOtGWUkZ5/Fz8gHrqlLtulQHZ6rWjySawZtRoCHHFZMi0SRZPGc/AhKoEy17ilExHsKTGaUwb6ZMqlNtsqIlEWySvFR5yRY1IjPIqbV8/oULzXvpEy3q19oNcguTJNCpVOU3LkRiaekLWpRNOqb28oIywrZyRbyyA8rig0mi1a2JkKitIWdVcQfZIydsyODK09Us40IW+/Ue6qn/AKqhPOnXRUKrSpVU7rbj02UuUZR1uKWszYdaIvWIi/q5+Q0YDE1VV2y6guTTLiqUCKZkaI3cSXdn1cGRqUrJ64V4eJbsYuQqw8xEZZmRanKfQgkuPdhNHpFFvVsloWfYQtAA5qfPYqUUpcdLiUGtbZk4g0qJSFmhRGR/ukwHLbvAO89N6lwAC3eAd56b1LgpiZbvAO89N6lwUwAAAAEy3uAd56b1LgpjIx7ztu30OQazUiiuHJmvZW2o07PaXddoiwW4wGuARrfvC3LpNZUGpFLJtBOKUltaS2TMyIyNRER6pMtPYLIAAAAmW7wDvPTepcALd4B3npvUuAAW7wDvPTepcFMTLd4B3npvUuCmAAAAAmW9wDvPTepcFMTLe4B3npvUuAKYAAAAAAmW7wDvPTepcALd4B3npvUuAAW7wDvPTepcFMSkW+20bnZ6pUGUOOuPGhDxbJKWs1qxkt2VGPLuRfvup+cn6QFMT7hqa6JQKnWW2idXAhvSkoUeCUaEGoiM/wB8Dw7kX77qfnJ+kQ76oy02TcKu+akrFKlng3U4P8FX+ICltXz+hQvNe+kctPi3zAYWxsUJe0+89n0jxfxHFLx+Xw2sfIe6tR6LWlNLO6n4SmUqSk4c9Le80nk9+T9XHwM/aJH3XpP9y7gLQy0rCC1POuNnGmmPDTdvyHdWqretFo8+svRKI43AjOyVoS67lRIQajIvV36DVDC3C1S6X9ntzQGrokT1yKdNWTkucl50jUwZbKT8C00LG8zFukWo7SqczT13XXpymSMjkS5KFuuZMzyoyQRHvxoRaEQC+AmdyL991Pzk/SHci/fdT85P0gFu8A7z03qXAHVToDNMilEYW4tO244anFbSlKWs1qMz+KjAB0gAAAm3J/LtU5J//mYAA+BgAAAfYsAAAAAAAAB//9k=" host="kod.cuc.edu.cn" modified="2025-06-05T06:03:30.560Z" agent="Mozilla/5.0 (Windows NT 10.0; Win64; x64) AppleWebKit/537.36 (KHTML, like Gecko) Chrome/136.0.0.0 Safari/537.36 Edg/136.0.0.0" etag="ITzMoAISwG5J9khMSlGq" version="22.0.8">
  <diagram name="第 1 页" id="GpmGUqf7kiBRX-znAQdY">
    <mxGraphModel dx="1433" dy="815" grid="1" gridSize="10" guides="1" tooltips="1" connect="1" arrows="1" fold="1" page="1" pageScale="1" pageWidth="827" pageHeight="1169" math="1" shadow="0">
      <root>
        <mxCell id="0" />
        <mxCell id="1" parent="0" />
        <mxCell id="xammErVcUyBC4rcIOWO7-1" value="Agent" style="rounded=0;whiteSpace=wrap;html=1;" vertex="1" parent="1">
          <mxGeometry x="340" y="120" width="120" height="60" as="geometry" />
        </mxCell>
        <mxCell id="xammErVcUyBC4rcIOWO7-2" value="Environment" style="rounded=0;whiteSpace=wrap;html=1;" vertex="1" parent="1">
          <mxGeometry x="350" y="380" width="120" height="60" as="geometry" />
        </mxCell>
        <mxCell id="xammErVcUyBC4rcIOWO7-3" value="" style="endArrow=classic;html=1;rounded=0;exitX=0;exitY=0.5;exitDx=0;exitDy=0;entryX=0;entryY=0.5;entryDx=0;entryDy=0;" edge="1" parent="1" source="xammErVcUyBC4rcIOWO7-2" target="xammErVcUyBC4rcIOWO7-1">
          <mxGeometry width="50" height="50" relative="1" as="geometry">
            <mxPoint x="380" y="440" as="sourcePoint" />
            <mxPoint x="220" y="40" as="targetPoint" />
            <Array as="points">
              <mxPoint x="200" y="410" />
              <mxPoint x="200" y="150" />
            </Array>
          </mxGeometry>
        </mxCell>
        <mxCell id="xammErVcUyBC4rcIOWO7-4" value="" style="endArrow=classic;html=1;rounded=0;exitX=1;exitY=0.5;exitDx=0;exitDy=0;entryX=1;entryY=0.5;entryDx=0;entryDy=0;" edge="1" parent="1" source="xammErVcUyBC4rcIOWO7-1" target="xammErVcUyBC4rcIOWO7-2">
          <mxGeometry width="50" height="50" relative="1" as="geometry">
            <mxPoint x="380" y="440" as="sourcePoint" />
            <mxPoint x="430" y="390" as="targetPoint" />
            <Array as="points">
              <mxPoint x="600" y="150" />
              <mxPoint x="600" y="410" />
            </Array>
          </mxGeometry>
        </mxCell>
        <mxCell id="xammErVcUyBC4rcIOWO7-5" value="Observation" style="text;strokeColor=none;align=center;fillColor=none;html=1;verticalAlign=middle;whiteSpace=wrap;rounded=0;" vertex="1" parent="1">
          <mxGeometry x="230" y="120" width="60" height="30" as="geometry" />
        </mxCell>
        <mxCell id="xammErVcUyBC4rcIOWO7-6" value="Action" style="text;strokeColor=none;align=center;fillColor=none;html=1;verticalAlign=middle;whiteSpace=wrap;rounded=0;" vertex="1" parent="1">
          <mxGeometry x="510" y="120" width="60" height="30" as="geometry" />
        </mxCell>
        <mxCell id="xammErVcUyBC4rcIOWO7-7" value="" style="endArrow=classic;html=1;rounded=0;entryX=0.5;entryY=1;entryDx=0;entryDy=0;exitX=0.417;exitY=0;exitDx=0;exitDy=0;exitPerimeter=0;" edge="1" parent="1" source="xammErVcUyBC4rcIOWO7-2" target="xammErVcUyBC4rcIOWO7-1">
          <mxGeometry width="50" height="50" relative="1" as="geometry">
            <mxPoint x="410" y="380" as="sourcePoint" />
            <mxPoint x="460" y="330" as="targetPoint" />
          </mxGeometry>
        </mxCell>
        <mxCell id="xammErVcUyBC4rcIOWO7-8" value="Reward" style="text;strokeColor=none;align=center;fillColor=none;html=1;verticalAlign=middle;whiteSpace=wrap;rounded=0;" vertex="1" parent="1">
          <mxGeometry x="400" y="260" width="60" height="30" as="geometry" />
        </mxCell>
      </root>
    </mxGraphModel>
  </diagram>
</mxfile>
